<?xml version="1.0" encoding="utf-8"?>
<!-- Generator: Adobe Illustrator 19.1.0, SVG Export Plug-In . SVG Version: 6.00 Build 0)  -->
<svg version="1.1" id="Layer_1" xmlns="http://www.w3.org/2000/svg" xmlns:xlink="http://www.w3.org/1999/xlink" x="0px" y="0px"
	 width="390px" height="390px" viewBox="0 0 390 390" style="enable-background:new 0 0 390 390;" xml:space="preserve">
<style type="text/css">
	.st0{opacity:0.3;enable-background:new    ;}
	.st1{opacity:0.5;}
	.st2{fill:#FFFFFF;}
	.st3{fill:#26282A;}
	.st4{fill:none;}
</style>
<g id="Available">
	<g>
		<circle class="st0" cx="195" cy="195" r="191"/>
		<g class="st1">
			<path class="st2" d="M195,4c105.5,0,191,85.5,191,191s-85.5,191-191,191S4,300.5,4,195S89.5,4,195,4 M195,0
				c-26.3,0-51.9,5.2-75.9,15.3c-23.2,9.8-44.1,23.9-62,41.8s-32,38.8-41.8,62C5.2,143.1,0,168.7,0,195s5.2,51.9,15.3,75.9
				c9.8,23.2,23.9,44.1,41.8,62s38.8,32,62,41.8c24,10.2,49.6,15.3,75.9,15.3s51.9-5.2,75.9-15.3c23.2-9.8,44.1-23.9,62-41.8
				s32-38.8,41.8-62c10.2-24,15.3-49.6,15.3-75.9s-5.2-51.9-15.3-75.9c-9.8-23.2-23.9-44.1-41.8-62s-38.8-32-62-41.8
				C246.9,5.2,221.3,0,195,0L195,0z"/>
		</g>
	</g>
	<circle class="st3" cx="195" cy="195" r="141"/>
</g>
<g id="icon">
	<g>
		<g>
			<path class="st2" d="M155.6,247.3c-10.1,0-18.9-5-23.1-13.6c-10.1-21,5.4-37.4,21.7-54.7c1.2-1.2,2.4-2.5,3.6-3.8
				c5.3-5.7,5.2-11.5,3.5-14.8c-1.8-3.4-5.5-4.9-10.2-4.2c-16.5,2.6-21.2,26.4-21.2,26.6l-11.9-2.2c0.3-1.3,6.4-32.3,31.2-36.3
				c9.8-1.6,18.5,2.4,22.7,10.4c4.7,8.9,2.6,20.1-5.3,28.6c-1.2,1.3-2.4,2.6-3.6,3.8c-16.7,17.8-25.9,28.5-19.6,41.4
				c3.3,6.8,11.1,7.6,16.9,6.3c9.2-2.1,19.8-11.1,19.7-29.5c-0.2-28.1,16.2-41.8,30.2-44.9c14.5-3.2,28.4,3.6,34.7,17
				c1.3,2.8,2.3,5.4,3.1,8.1c13.3,0.7,25.5,4.3,26,4.4l-3.4,11.5c-0.1,0-9.7-2.8-20.6-3.8c0.5,16.5-8.6,28.9-20.1,34.7
				c-11.9,6-24,3.8-28.9-5.2c-3.1-5.6-1.9-14.7,2.9-22.5c7.9-13,21.3-17.4,31.5-18.8c-0.4-1.2-0.9-2.4-1.4-3.4
				c-3.9-8.3-12.2-12.4-21.1-10.4c-9.7,2.2-21,12.1-20.8,33.1c0.2,25.5-15.6,38.1-29,41.3C160.5,247,158,247.3,155.6,247.3z
				 M237.8,197.7c-14,1.5-20.6,8.5-23.4,12.9c-3.3,5.2-3.4,9.8-2.9,10.9c1.6,2.9,7.3,3,13,0.2C235.3,216.2,238.3,206.6,237.8,197.7z
				"/>
		</g>
		<rect x="118" y="144" class="st4" width="156" height="104"/>
	</g>
</g>
</svg>
